<?xml version="1.0" encoding="utf-8"?>
<!-- Generator: Adobe Illustrator 23.1.0, SVG Export Plug-In . SVG Version: 6.00 Build 0)  -->
<svg version="1.1" id="Layer_1" xmlns="http://www.w3.org/2000/svg" xmlns:xlink="http://www.w3.org/1999/xlink" x="0px" y="0px"
	 viewBox="0 0 1200 1200" enable-background="new 0 0 1200 1200" xml:space="preserve">
<g>
	<path fill="#964F23" d="M336.997,602.892L208.252,303.109c-10.422-24.267,0.802-52.387,25.069-62.809l177.909-76.405
		c8.174-3.51,17.48,0.465,20.919,8.668c0.093,0.223,0.188,0.446,0.284,0.668c20,46.57,73.966,68.11,120.536,48.11
		c4.718-2.026,9.168-4.409,13.341-7.099c8.696-5.605,20.131-1.016,23.607,8.729c0.626,1.756,1.311,3.503,2.057,5.241
		c20,46.57,73.966,68.11,120.536,48.109c0.052-0.022,0.103-0.044,0.154-0.066c8.166-3.527,17.635-0.045,21.145,8.128l53.696,125.033
		L336.997,602.892z"/>
	<path fill="#FF8FA5" d="M800.249,403.944l197.536,459.965c10.421,24.266-1.915,52.865-27.554,63.876L587.084,1092.33
		c-25.639,11.011-54.872,0.265-65.294-24.001L324.254,608.365L800.249,403.944z"/>
	<path fill="#D85050" d="M787.506,409.416L597.561,731.287c-14.517,24.601-47.18,31.148-70.057,14.043L336.997,602.892
		L787.506,409.416z M595.382,1088.95l23.24,54.115c3.074,7.158,12.511,9.344,18.03,3.847c14.749-14.692,10.758-36.378,35.919-47.183
		c30.631-13.155,43.206,16.125,73.837,2.971c30.627-13.153,18.052-42.433,48.679-55.586c30.628-13.153,43.203,16.127,73.83,2.973
		c30.626-13.153,18.052-42.433,48.678-55.586c25.166-10.808,38.143,7.036,58.963,6.444c7.779-0.221,12.693-8.549,9.635-15.706
		l-23.152-54.185L595.382,1088.95z"/>
	<path fill="#FCDC6E" d="M387.938,1033.958c-26.438-5.831-26.438-22.028,0-27.858c34.586-7.627,62.134-35.176,69.761-69.761
		c5.831-26.438,22.028-26.438,27.858,0c7.627,34.586,35.176,62.134,69.761,69.761c26.438,5.831,26.438,22.028,0,27.858
		c-34.586,7.627-62.134,35.176-69.761,69.761c-5.831,26.438-22.028,26.438-27.858,0
		C450.072,1069.134,422.524,1041.586,387.938,1033.958z M270.219,925.917c4.667,21.161,17.63,21.161,22.297,0
		c6.105-27.682,28.154-49.731,55.836-55.836c21.161-4.667,21.161-17.63,0-22.297c-27.682-6.105-49.731-28.154-55.836-55.836
		c-4.667-21.161-17.63-21.161-22.297,0c-6.105,27.682-28.154,49.731-55.836,55.836c-21.161,4.667-21.161,17.63,0,22.297
		C242.065,876.186,264.115,898.235,270.219,925.917z M772.862,263.343c4.667,21.161,17.63,21.161,22.297,0
		c6.105-27.682,28.154-49.731,55.836-55.836c21.161-4.667,21.161-17.63,0-22.297c-27.682-6.105-49.731-28.154-55.836-55.836
		c-4.667-21.161-17.63-21.161-22.297,0c-6.105,27.682-28.154,49.731-55.836,55.836c-21.161,4.667-21.161,17.63,0,22.297
		C744.708,213.612,766.757,235.661,772.862,263.343z"/>
	<path fill="#723D1D" d="M631.464,271.966l-100.211,43.037c-15.362,6.598-33.164-0.508-39.762-15.87l-36.063-83.973
		c-1.701-3.962-2.476-8.084-2.448-12.135c25.796,24.903,64.978,33.353,99.988,18.318c4.718-2.026,9.168-4.409,13.341-7.099
		c8.696-5.605,20.131-1.016,23.607,8.729c0.626,1.756,1.311,3.503,2.057,5.241C600.266,247.52,614.443,262.439,631.464,271.966z
		 M456.852,314.008l-36.063-83.973c-6.598-15.362-24.4-22.468-39.762-15.87l-114.413,49.136c-15.362,6.598-22.468,24.4-15.87,39.762
		l36.063,83.973c6.598,15.362,24.4,22.468,39.762,15.87l114.413-49.136C456.345,347.173,463.45,329.371,456.852,314.008z
		 M735.466,398.249l-36.063-83.973c-6.598-15.362-24.4-22.468-39.762-15.87l-114.413,49.136c-15.362,6.598-22.468,24.4-15.87,39.762
		l36.063,83.973c6.598,15.362,24.4,22.468,39.762,15.87l114.413-49.136C734.959,431.414,742.064,413.612,735.466,398.249z
		 M530.782,486.153l-36.063-83.973c-6.598-15.362-24.4-22.468-39.762-15.87l-114.413,49.136c-15.362,6.598-22.468,24.4-15.87,39.762
		l36.063,83.973c6.598,15.362,24.4,22.468,39.762,15.87l114.413-49.136C530.274,519.318,537.379,501.516,530.782,486.153z
		 M547.629,90.595c-3.941,16.749,6.511,37.29,23.084,39.658c16.573,2.368,49.72-9.47,54.455-18.349
		c4.735-8.879-4.735-57.415-20.125-61.558C589.655,46.202,549.997,80.532,547.629,90.595z M645.676,196.209
		c11.031-0.959,21.487-11.48,19.601-22.088c-1.886-10.608-15.79-28.49-22.17-29.6c-6.38-1.109-34.147,14.442-33.585,24.684
		C610.085,179.447,639.048,196.786,645.676,196.209z M672.66,117.534c7.684,3.622,18.676,0.682,21.52-7.078
		s0.529-24.982-3.273-28.18c-3.802-3.198-28.212-3.605-31.792,3.402C655.535,92.685,668.044,115.358,672.66,117.534z"/>
</g>
</svg>
